<svg height="16" viewBox="0 0 4.2333 4.2333" width="16" xmlns="http://www.w3.org/2000/svg"><g fill="#231f20" transform="translate(.016203 .006008)"><path d="m2.3636.66811c-.11736.0033907-.22744.066862-.28844.17252-.078086.13525-.055841.30606.054588.41649l.58901.58901.58901-.58901c.11043-.11043.13267-.28124.054588-.41649-.078086-.13525-.23733-.20149-.38818-.16107-.14614.039157-.24912.16873-.25542.31877-.0062952-.15004-.10928-.27961-.25542-.31877-.032998-.008842-.066881-.012402-.099741-.01145z" stroke-linecap="round" stroke-linejoin="round" stroke-width=".73061"/><path d="m1.4023 2.2857c.36951-.063823.46376-.14836.9396.010289.33447.11151.76636-.075313.77909.17815.023467.21051-.94576.15243-.94576.15243s1.0311.27619 1.112-.12555c.00595-.029552.52367-.37879.64345-.2528.09835.10345.02023.16118-.30518.39373-.32541.23254-.32592.21962-.63016.3277-.48577.17257-1.2397.040121-1.2808-.044048z"/><path d="m-.74514 2.8319h.4552v.39986h-.4552z" stroke="#231f20" stroke-linecap="round" stroke-linejoin="round" stroke-width=".6313" transform="matrix(.9026529 -.43036931 .43036931 .9026529 0 0)"/></g></svg>