<svg width="16" height="16" version="1.1" viewBox="0 0 4.2333 4.2333" xmlns="http://www.w3.org/2000/svg">
 <g transform="translate(.016203 .0060079)" fill="#b6b6b6">
  <path d="m2.3636 0.66811c-0.11736 0.0033907-0.22744 0.066862-0.28844 0.17252-0.078086 0.13525-0.055841 0.30606 0.054588 0.41649l0.58901 0.58901 0.58901-0.58901c0.11043-0.11043 0.13267-0.28124 0.054588-0.41649-0.078086-0.13525-0.23733-0.20149-0.38818-0.16107-0.14614 0.039157-0.24912 0.16873-0.25542 0.31877-0.0062952-0.15004-0.10928-0.27961-0.25542-0.31877-0.032998-0.008842-0.066881-0.012402-0.099741-0.01145z" stroke-linecap="round" stroke-linejoin="round" stroke-width=".73061"/>
  <path d="m1.4023 2.2857c0.36951-0.063823 0.46376-0.14836 0.9396 0.010289 0.33447 0.11151 0.76636-0.075313 0.77909 0.17815 0.023467 0.21051-0.94576 0.15243-0.94576 0.15243s1.0311 0.27619 1.112-0.12555c0.00595-0.029552 0.52367-0.37879 0.64345-0.2528 0.09835 0.10345 0.02023 0.16118-0.30518 0.39373-0.32541 0.23254-0.32592 0.21962-0.63016 0.3277-0.48577 0.17257-1.2397 0.040121-1.2808-0.044048z"/>
  <rect transform="rotate(-25.491)" x="-.74514" y="2.8319" width=".4552" height=".39986" stroke="#b6b6b6" stroke-linecap="round" stroke-linejoin="round" stroke-width=".6313"/>
 </g>
</svg>
