<svg width="16" height="16" version="1.1" viewBox="0 0 4.2333 4.2333" xmlns="http://www.w3.org/2000/svg">
 <g stroke="#b6b6b6" stroke-linecap="round" stroke-linejoin="round">
  <circle cx="2.1167" cy="2.1167" r="1.0054" fill="none" stroke-width=".34396"/>
  <g fill="#b6b6b6" stroke-width=".26458">
   <path d="m1.9447 0.45223h0.34396l0.10583 0.66146h-0.55562z"/>
   <path d="m3.172 0.81812 0.24322 0.24322-0.39289 0.54256-0.39289-0.39289z"/>
   <path d="m3.7811 1.9447v0.34396l-0.66146 0.10583v-0.55562z"/>
   <path d="m3.4152 3.172-0.24322 0.24322-0.54256-0.39289 0.39289-0.39289z"/>
   <path d="m2.2886 3.7811h-0.34396l-0.10583-0.66146h0.55562z"/>
   <path d="m1.0613 3.4152-0.24322-0.24322 0.39289-0.54256 0.39289 0.39289z"/>
   <path d="m0.45223 2.2886v-0.34396l0.66146-0.10583v0.55562z"/>
   <path d="m0.81812 1.0613 0.24322-0.24322 0.54256 0.39289-0.39289 0.39289z"/>
  </g>
 </g>
</svg>
