<svg height="16" viewBox="0 0 4.2333 4.2333" width="16" xmlns="http://www.w3.org/2000/svg"><g fill="none" stroke="#231f20" stroke-linecap="round" stroke-linejoin="round" stroke-width=".26458"><path d="m1.2268 2.5533-.27078.45837.26562.26562.45837-.27078.11627.048576.13229.51521h.3762l.13229-.51521.11627-.048576.45837.27078.26562-.26562-.27078-.45837.048576-.11627.51521-.13229v-.3762l-.51521-.13229-.048576-.11627.27078-.45837-.26562-.26562-.45837.27078-.11627-.048576-.13229-.51521h-.3762l-.13229.51521-.11627.048576-.45837-.27078-.26562.26562.27078.45837-.048576.11627-.51521.13229v.3762l.51521.13229z"/><path d="m2.6458 2.1167a.52917.52917 0 0 1 -.52917.52917.52917.52917 0 0 1 -.52917-.52917.52917.52917 0 0 1 .52917-.52917.52917.52917 0 0 1 .52917.52917z"/></g></svg>