<svg width="16" height="16" version="1.1" viewBox="0 0 4.2333 4.2333" xmlns="http://www.w3.org/2000/svg">
 <g fill="none" stroke="#231F20" stroke-linecap="round" stroke-linejoin="round" stroke-width=".26458">
  <path d="m1.2268 2.5533-0.27078 0.45837 0.26562 0.26562 0.45837-0.27078 0.11627 0.048576 0.13229 0.51521h0.3762l0.13229-0.51521 0.11627-0.048576 0.45837 0.27078 0.26562-0.26562-0.27078-0.45837 0.048576-0.11627 0.51521-0.13229v-0.3762l-0.51521-0.13229-0.048576-0.11627 0.27078-0.45837-0.26562-0.26562-0.45837 0.27078-0.11627-0.048576-0.13229-0.51521h-0.3762l-0.13229 0.51521-0.11627 0.048576-0.45837-0.27078-0.26562 0.26562 0.27078 0.45837-0.048576 0.11627-0.51521 0.13229v0.3762l0.51521 0.13229z"/>
  <path d="m2.6458 2.1167a0.52917 0.52917 0 0 1-0.52917 0.52917 0.52917 0.52917 0 0 1-0.52917-0.52917 0.52917 0.52917 0 0 1 0.52917-0.52917 0.52917 0.52917 0 0 1 0.52917 0.52917z"/>
 </g>
</svg>
