<svg height="32" viewBox="0 0 8.4666667 8.4666667" width="32" xmlns="http://www.w3.org/2000/svg"><g stroke-linecap="round" stroke-miterlimit="3.7"><path d="m6.4366625.2744736a1.5873891 1.5873267 0 0 0 -.9456127.45573637l-4.76113396 4.76094653a1.5873891 1.5873267 0 0 0 0 2.2456126 1.5873891 1.5873267 0 0 0 2.24570096 0l4.761134-4.7609465a1.5873891 1.5873267 0 0 0 0-2.24561263 1.5873891 1.5873267 0 0 0 -1.3000883-.45573637zm.1787876.52084157a1.0582596 1.058218 0 0 1 1.0582599 1.05821773 1.0582596 1.058218 0 0 1 -1.0582595 1.0582179 1.0582596 1.058218 0 0 1 -1.0582595-1.0582179 1.0582596 1.058218 0 0 1 1.0582591-1.05821773z" fill="#739df0" stroke-width="1.99982"/><g stroke="#fff"><path d="m1.3229165 6.3500004 3.1750003-3.1750005" stroke-width=".529166"/><path d="m2.1166668 7.1437503 2.1166668-2.1166668" stroke-width=".529167"/></g></g></svg>