<svg width="18" height="18" version="1.1" viewBox="0 0 4.7625 4.7625" xml:space="preserve" xmlns="http://www.w3.org/2000/svg"><g transform="matrix(.42857 0 0 .42857 2.7057 2.634)" stroke="#93c54b" stroke-width=".61737"><path d="m1.0951 2.8057h3.0868"/><path d="m2.6385 1.2623v3.0868"/></g><g stroke-linecap="round" stroke-miterlimit="3.7"><path d="m3.4825 0.40101a0.79375 0.79375 0 0 0-0.47284 0.22789l-2.3807 2.3807a0.79375 0.79375 0 0 0 0 1.1229 0.79375 0.79375 0 0 0 1.1229 0l2.3807-2.3807a0.79375 0.79375 0 0 0 0-1.1229 0.79375 0.79375 0 0 0-0.65009-0.22789zm0.0894 0.26045a0.52917 0.52917 0 0 1 0.52917 0.52917 0.52917 0.52917 0 0 1-0.52917 0.52917 0.52917 0.52917 0 0 1-0.52917-0.52917 0.52917 0.52917 0 0 1 0.52917-0.52917z" color="#000000" fill="#739df0" style="-inkscape-stroke:none"/><path d="m0.92604 3.4396 1.5875-1.5875" stroke="#fff" stroke-width=".26458"/><path d="m1.3229 3.8365 1.0583-1.0583" stroke="#fff" stroke-width=".26458"/></g></svg>
