<svg height="18" viewBox="0 0 4.7625 4.7625" width="18" xmlns="http://www.w3.org/2000/svg"><g stroke="#93c54b" stroke-width=".61737" transform="matrix(.42857 0 0 .42857 2.7057 2.634)"><path d="m1.0951 2.8057h3.0868"/><path d="m2.6385 1.2623v3.0868"/></g><g stroke-linecap="round" stroke-miterlimit="3.7"><path d="m3.4825.40101a.79375.79375 0 0 0 -.47284.22789l-2.3807 2.3807a.79375.79375 0 0 0 0 1.1229.79375.79375 0 0 0 1.1229 0l2.3807-2.3807a.79375.79375 0 0 0 0-1.1229.79375.79375 0 0 0 -.65009-.22789zm.0894.26045a.52917.52917 0 0 1 .52917.52917.52917.52917 0 0 1 -.52917.52917.52917.52917 0 0 1 -.52917-.52917.52917.52917 0 0 1 .52917-.52917z" fill="#739df0"/><g stroke="#9aa7b0" stroke-width=".26458"><path d="m.92604 3.4396 1.5875-1.5875"/><path d="m1.3229 3.8365 1.0583-1.0583"/></g></g></svg>