<svg fill="#231f20" height="18" viewBox="-49.5 -49.5 429 429" width="18" xmlns="http://www.w3.org/2000/svg"><path d="m65 330h200c8.284 0 15-6.716 15-15v-170c0-8.284-6.716-15-15-15h-15v-45c0-46.869-38.131-85-85-85s-85 38.131-85 85v45h-15c-8.284 0-15 6.716-15 15v170c0 8.284 6.716 15 15 15zm115-95.014v20.014c0 8.284-6.716 15-15 15s-15-6.716-15-15v-20.014c-6.068-4.565-10-11.824-10-19.986 0-13.785 11.215-25 25-25s25 11.215 25 25c0 8.162-3.932 15.421-10 19.986zm-70-149.986c0-30.327 24.673-55 55-55s55 24.673 55 55v45h-110z"/></svg>