<svg height="18" viewBox="0 0 4.7625 4.7625" width="18" xmlns="http://www.w3.org/2000/svg"><path d="m2.3812 1.7653c-.72383 0-1.2786.43312-1.7198.92604.44118.49292.99596.92604 1.7198.92604.72383 0 1.2786-.43312 1.7198-.92604-.44118-.49292-.99596-.92604-1.7198-.92604zm0 .52047c.24426 0 .40534.20273.40534.40557s-.16522.40537-.40534.40537-.40534-.16733-.40534-.40537.16108-.40557.40534-.40557z" fill="#231f20"/><g fill="none" stroke="#231f20" stroke-linecap="round" stroke-width=".26458" transform="translate(0 .045601)"><path d="m.95934 1.6782-.29373-.35321m3.1376.35321.29373-.35321"/><path d="m1.9103 1.2887-.10905-.43983m1.0509.43983.10905-.43983"/></g></svg>