<svg width="18" height="18" version="1.1" viewBox="0 0 4.7625 4.7625" xml:space="preserve" xmlns="http://www.w3.org/2000/svg"><path d="m2.3812 1.7653c-0.72383 0-1.2786 0.43312-1.7198 0.92604 0.44118 0.49292 0.99596 0.92604 1.7198 0.92604 0.72383 0 1.2786-0.43312 1.7198-0.92604-0.44118-0.49292-0.99596-0.92604-1.7198-0.92604zm0 0.52047c0.24426 0 0.40534 0.20273 0.40534 0.40557s-0.16522 0.40537-0.40534 0.40537-0.40534-0.16733-0.40534-0.40537 0.16108-0.40557 0.40534-0.40557z" fill="#231F20"/><path transform="translate(0 .045601)" d="m0.95934 1.6782-0.29373-0.35321m3.1376 0.35321 0.29373-0.35321" fill="none" stroke="#231F20" stroke-linecap="round" stroke-width=".26458"/><path transform="translate(0 .045601)" d="m1.9103 1.2887-0.10905-0.43983m1.0509 0.43983 0.10905-0.43983" fill="none" stroke="#231F20" stroke-linecap="round" stroke-width=".26458"/></svg>
