<svg width="128pt" height="128pt" version="1.1" viewBox="0 0 160 160" xmlns="http://www.w3.org/2000/svg">
 <g transform="translate(.46875 -894.24)">
  <path d="m148.5 941.06c3.6283 0.5624-3.0595 15.737-5.7065 19.239-1.9507 2.0088-23.762 0.28714-34.764 0.28714-2.162 0-8.8068 1.3672-9.0435 3.3322-1.0791 8.094-1.9386 18.802-2.3642 51.951 0.94589 2.2071 2.3422 3.3106 4.1889 3.3106h0.47294c8.8283 0 26.429-0.039 42.149-0.3545 0.81077 0 2.0494 1.2387 3.716 3.716-0.31529 3.6484-0.47294 6.2834-0.47294 7.9049v3.716c0 2.7926-1.7116 4.1889-5.1348 4.1889h-2.2972c-5.5509-0.372-9.709-0.2634-18.175 0h-16.283c-8.9441-0.1595-11.944-0.7129-21.891-0.4729h-6.959c-1.036 0-2.1395-0.473-3.3106-1.4189-0.6003-20.777-1.095-41.966-1.8242-50.267-0.3153-20.81-0.47294-33.061-0.47294-36.754 0-0.22521-0.15765-1.1486-0.47294-2.7701 1.036-3.4232 2.5899-5.1348 4.6619-5.1348h44.186c6.9816 0 16.913-0.15765 29.795-0.47295z" fill="#93c54b"/>
  <g transform="translate(-24.517,42.4)" fill="#c6c6c6">
   <path transform="matrix(.9375 0 0 .9375 24.517 849.96)" d="m36.08 17.465c-4.2428 0.04131-6.121 0.95582-6.4043 2.3418l-2.502 11.805-13.521 75.648c-1.2015 6.4579 2.5315 7.0913 10.334 7.3086 2.1897 0.0608 4.4342 0.35357 7.498 0.1875 6.6317-0.35974 10.863-0.71335 11.916-5.3203 0.99977-5.7347 5.5511-32.832 6.8633-32.832 0.72638 0.22412 4.4433 0.53805 8.5742 0.94141l-0.60547 18.086c-0.35107 1.8377 2.1202 2.7559 7.4141 2.7559 2.1327-0.26896 2.4662-0.15625 4.457-0.15625h2.6367c-0.28932-19.683-0.46484-33.204-0.46484-37.182 0-0.28466-0.19914-1.4524-0.59766-3.502 0.05129-0.16948 0.11076-0.31372 0.16406-0.47656-4.4633-0.23812-8.5073-0.6801-9.2695-1.543-0.5073-0.62152-1.8482-1.5646-1.541-3.7773 0.5075-3.6559 2.45-9.0345 1.25-10.475-1.4237-1.7086-7.1044-0.93194-7.4785-2.5586-0.55566-2.8178 1.7729-10.229 2.1562-14.729 0.20237-2.8832 0.1112-4.7259-2.6699-5.5879-3.2411-1.0046-14.653-0.78259-18.209-0.93555zm77.281 0.6582c-5.604-0.12184-6.5967 0.71113-8.1465 4.5996-0.84928 2.4739-2.8467 11.843-4.0703 16.877-0.80952 3.3302-6.3363-0.31776-8.4277 1.7363-1.4161 1.3908-2.1279 5.2608-2.8652 8.9631h38.676c2.2489-12.401 4.9727-26.66 4.9727-26.66 0.20703-1.31-0.37739-4.6153-4.0469-4.8457 0 0-12.745-0.59728-16.092-0.66992zm6.5644 57.016c-2.7327 0-11.257 0.33833-11.556 2.822-0.95375 7.154-1.6395 17.546-2.2292 36.5l6.3301-0.13477c1.7642-0.0373 4.9271-0.31864 5.2988-3.2266 0.68844-4.1901 3.4496-19.576 6.3926-35.896-1.4738-0.03124-2.9621-0.06445-4.2363-0.06445z" fill="#c6c6c6"/>
  </g>
 </g>
 <rect x="14.563" y="114.13" width="52.962" height="28.929" ry="3.338" fill="#ffa622" stroke-linejoin="round" stroke-width="9.375"/>
 <g fill="#fff" stroke-width=".9375" aria-label="EAP">
  <path d="m30.728 129.51v-2.3682h-7.3486v-5.0049h8.5205v-2.4292h-11.462v17.773h11.523v-2.417h-8.5815v-5.5542z"/>
  <path d="m43.911 133.39 1.1963 4.0894h3.0396l-5.6885-17.773h-2.6001l-5.7861 17.773h3.0518l1.2085-4.0894zm-4.834-2.5146 2.0752-7.0312 2.0386 7.0312z"/>
  <path d="m53.433 130.7h3.0151q1.3428 0 2.4658-0.39063 1.1353-0.39062 1.9531-1.1108 0.81787-0.70801 1.2695-1.6968 0.45166-1.001 0.45166-2.2339 0-1.2817-0.45166-2.3071t-1.2695-1.7456q-0.81787-0.72021-1.9531-1.1108-1.123-0.39062-2.4658-0.40283h-5.9448v17.773h2.9297zm0-2.3926v-6.2134h3.0151q0.74463 0.0122 1.3306 0.24414 0.59814 0.23193 1.0132 0.65918 0.41504 0.42725 0.62256 1.0132 0.21973 0.57373 0.21973 1.2817 0 0.64698-0.21973 1.1963-0.20752 0.54932-0.62256 0.95215-0.41504 0.40283-1.0132 0.63477-0.58594 0.21972-1.3306 0.23193z"/>
 </g>
</svg>
