<?xml version="1.0" encoding="UTF-8"?>
<svg width="150pt" height="25pt" version="1.1" viewBox="0 0 1875 312.5" xmlns="http://www.w3.org/2000/svg" xmlns:cc="http://creativecommons.org/ns#" xmlns:dc="http://purl.org/dc/elements/1.1/" xmlns:rdf="http://www.w3.org/1999/02/22-rdf-syntax-ns#">
 <g transform="translate(0 -739.86)" stroke-width="1px">
  <g transform="matrix(1.0047 0 -.19014 .99528 9.9609 0)" fill="#c6c6c6">
   <path d="m274.84 834.47c1.7158 4.1138 15.572 2.1477 19.956 6.4687 3.6955 3.6422 1.4047 17.243 1.883 26.489 0.2895 5.5961 4.099 7.9854 5.6674 9.5572 5.1402 4.8298 49.266 4.5906 57.088 4.5906 5.0449-0.41312 5.4262-0.34001 7.7425-4.0592 3.0551-4.9054-0.64781-30.877 3.8976-36.424 4.2565-5.1948 19.85 4.0326 20.285-4.3896 0.65627-12.73 1.1737-36.427 2.1173-42.684 2.0215-9.8341 4.1089-11.938 18.206-11.63 8.4198 0.18406 40.636 1.6936 40.636 1.6936 9.3031 0.58289 12.345 8.9399 12.454 12.253 0 0 1.754 194.74 2.4546 221.19 0.46053 7.3542-7.3301 8.0672-11.732 8.1614l-38.917 0.8326c-17.946 0.3839-27.136-0.6407-27.136-11.636-1.5886-22.83-1.0888-50.93-1.0888-74.059l-1.1902-8.1614h-1.1902c-4.0807 0-12.862 0.22769-22.043-0.56578l-1.1902 2.3804c0 33.666-3.5139 50.499-10.542 50.499h-10.542c-4.9875 0-5.8767-0.28437-11.091 0.39575-13.262 0-19.893-2.3237-19.893-6.9712l-7.1412-45.738c-10.542-1.0202-20.004-1.8136-21.931-2.3804-3.2872 0-1.7187 68.528-1.4787 83.031-0.4325 11.651-10.863 12.545-27.305 13.455-7.596 0.4203-13.361-0.3196-18.876-0.4737-19.651-0.5492-29.303-2.1514-29.384-18.484l-2.331-191.32 0.61537-29.851c0.0463-3.5052 4.3144-5.818 14.924-5.9225 8.9816 0.38721 37.464-0.17373 46.065 2.3667 7.3798 2.1798 8.4906 6.8372 9.3635 14.129 1.1931 11.379-1.0908 30.126 1.6499 37.252z" fill="#c6c6c6"/>
  </g>
  <g transform="matrix(.90214 0 -.18388 1.1085 0 0)" fill="#fff">
   <path d="m751.66 748.71h-159.59v127.96h159.59v42.653h-213.26v-213.26h213.26z"/>
   <path d="m947.6 791.36v-42.653h-114.04v42.653zm47.475 127.96h-47.475v-85.305h-114.04v85.305h-51.746v-213.26h170.61l44.423 0.10064c-0.0687 28.395-0.0644 56.8-0.0644 85.205h-49.181v42.653h47.475z"/>
   <path d="m1238.5 748.71h-161.88v42.653h119.23v42.653h-119.23v42.653h161.88v42.653h-213.26v-213.26h213.26z"/>
   <path d="m1268.6 706.05 215.93-0.0976-2.6637 213.36h-48.164v-85.305h-114.64v85.305h-50.46zm162.47 85.57 0.9302-42.818-112.94-0.0991v42.653z"/>
   <path d="m1725.3 706.05v42.653h-81.172v170.61h-49.542v-170.61h-82.55v-42.653z"/>
   <path d="m1923.3 748.71h45.408v170.61h-213.26v-213.26h167.86zm0 127.96v-127.96h-119.69v127.96z"/>
   <path d="m2162.1 791.36v-42.653h-114.04v42.653zm47.475 127.96h-47.475v-85.305h-114.04v85.305h-51.746v-213.26h170.61l44.423 0.10064c-0.069 28.395-0.064 56.8-0.064 85.205h-49.181v42.653h47.475z"/>
  </g>
 </g>
</svg>
