<?xml version="1.0" encoding="UTF-8" standalone="no"?>
<svg id="svg3346" xmlns:rdf="http://www.w3.org/1999/02/22-rdf-syntax-ns#" xmlns="http://www.w3.org/2000/svg" shape-rendering="crispEdges" height="36" viewBox="0 0 281.25 56.25" width="145" version="1.1" xmlns:cc="http://creativecommons.org/ns#" xmlns:dc="http://purl.org/dc/elements/1.1/">
<path id="path3358" fill="#fff" d="m0.9375 28.125v-27.187h22.969 22.969v4.6875 4.6875h4.6875 4.6875v11.719 11.719h-21.094-21.094v10.781 10.781h-6.5625-6.5625v-27.188zm42.188-11.25v-5.625h-14.531-14.531v5.625 5.625h14.531 14.531v-5.625zm57.188 27.656v-10.781h-11.25-11.25v-16.406-16.406h7.0312 7.0312v10.781 10.781h15 15v-10.781-10.781h6.5625 6.5625v16.406 16.406h-10.781-10.781v10.781 10.781h-6.5625-6.5625v-10.781zm56.25-16.406v-27.187h6.5625 6.5625v21.562 21.562h16.406 16.406v5.625 5.625h-22.969-22.969v-27.188zm67.5 0v-27.187h22.969 22.969v5.1563 5.1562h5.1562 5.1562v22.031 22.031h-28.125-28.125v-27.188zm43.125-0.46875v-16.406h-14.531-14.531v16.406 16.406h14.531 14.531v-16.406z"/>
</svg>
