<?xml version="1.0" encoding="UTF-8" standalone="no"?>
<!-- Created with Inkscape (http://www.inkscape.org/) -->
<svg width="16" height="16" viewBox="0 0 4.2333332 4.2333333" version="1.1" id="svg1" xmlns="http://www.w3.org/2000/svg" xmlns:svg="http://www.w3.org/2000/svg"> <defs id="defs1" /> <g id="layer1"> <path d="M 3.0158849,2.6536611 H 3.7020655 Q 3.6691287,2.9567955 3.4824876,3.1942154 3.2958465,3.4295155 2.9582457,3.5651841 2.6206449,3.7008526 2.1375737,3.7008526 q -0.3705374,0 -0.6669674,-0.1017514 Q 1.1741763,3.4952299 0.96283273,3.3065659 0.75148918,3.1157821 0.63895554,2.8465648 0.52916666,2.5773475 0.52916666,2.2445357 V 1.9880374 q 0,-0.3328119 0.11253363,-0.6020292 Q 0.75697858,1.116791 0.97106683,0.92600709 1.1851552,0.73310338 1.4843299,0.63135198 q 0.3019195,-0.1017514 0.6779464,-0.1017514 0.4775817,0 0.8069484,0.13566854 0.3293666,0.13566847 0.5105182,0.37520828 0.1838964,0.2395398 0.2250673,0.5490337 H 3.0186296 Q 2.9911824,1.3902479 2.8978619,1.2482199 2.807286,1.1061919 2.6288791,1.0319981 2.4504721,0.95568459 2.1622763,0.95568459 q -0.2360461,0 -0.4117084,0.067834 -0.1756622,0.067834 -0.2936852,0.1992631 -0.118023,0.1314289 -0.178407,0.3243325 -0.05764,0.1907839 -0.05764,0.4366831 v 0.2607383 q 0,0.2331803 0.052149,0.4239642 0.054894,0.1886641 0.1646834,0.3243326 0.1125337,0.1356685 0.285451,0.2098622 0.1729176,0.074194 0.414453,0.074194 0.2936854,0 0.4748371,-0.072074 Q 2.7963063,3.1327406 2.8896268,2.9949522 2.9856918,2.855044 3.0158849,2.6536611 Z" id="text1" style="font-weight:500;font-size:4.94002px;font-family:Roboto;-inkscape-font-specification:'Roboto Medium';fill:#92afb4;fill-opacity:1;stroke-width:0.370503" aria-label="C" /> <path style="font-weight:500;font-size:2.06168px;font-family:Roboto;-inkscape-font-specification:'Roboto Medium';fill:#d34848;fill-opacity:1;stroke-width:0.154627" d="m 1.7715071,2.7448781 h 0.51844 q 0.1671088,0 0.2848904,0.050334 0.1177815,0.050334 0.1801956,0.1489886 0.063421,0.097648 0.063421,0.2416031 0,0.1097281 -0.040267,0.1932825 -0.040267,0.083554 -0.1137548,0.1409352 -0.073488,0.056374 -0.1751623,0.087581 L 2.412762,3.6448495 H 1.9466693 l -0.00201,-0.200329 h 0.3493145 q 0.090601,0 0.151002,-0.032214 0.060401,-0.032214 0.090601,-0.087581 0.031207,-0.056374 0.031207,-0.1268416 0,-0.076508 -0.0302,-0.1328818 -0.029194,-0.057381 -0.090601,-0.087581 -0.061408,-0.031207 -0.1560354,-0.031207 H 2.0241837 V 4.2106038 H 1.7715071 Z M 2.6080579,4.2106038 2.2637734,3.5522352 2.5285302,3.5512285 2.8778481,4.1975169 v 0.013087 z M 4.2378724,3.4374737 v 0.080534 q 0,0.1661022 -0.043287,0.2979772 -0.043287,0.1318751 -0.1238217,0.2244896 -0.079528,0.092615 -0.1912691,0.1419418 -0.1117415,0.048321 -0.2476432,0.048321 -0.1348951,0 -0.2466365,-0.048321 Q 3.2744799,4.1330894 3.1929388,4.0404749 3.1113978,3.9478604 3.0660972,3.8159853 3.0218033,3.6841103 3.0218033,3.5180081 v -0.080534 q 0,-0.1661021 0.044294,-0.2969705 0.044294,-0.131875 0.1248283,-0.2244896 0.081541,-0.093621 0.1922758,-0.1419418 0.1117414,-0.049327 0.2466365,-0.049327 0.1359018,0 0.2476432,0.049327 0.1117415,0.048321 0.1922759,0.1419418 0.080534,0.092615 0.1238216,0.2244896 0.044294,0.1308684 0.044294,0.2969701 z m -0.2526766,0.080534 v -0.082548 q 0,-0.122815 -0.02416,-0.2164362 -0.023154,-0.094628 -0.069461,-0.1580484 -0.045301,-0.064427 -0.1117415,-0.096641 -0.066441,-0.03322 -0.1499953,-0.03322 -0.083554,0 -0.1489886,0.033221 -0.065434,0.032214 -0.1117414,0.096641 -0.045301,0.063421 -0.069461,0.1580487 -0.02416,0.093621 -0.02416,0.2164362 v 0.082548 q 0,0.1228149 0.02416,0.2174428 0.02416,0.094628 0.070468,0.1600621 0.047314,0.064428 0.1127481,0.097648 0.065434,0.032214 0.1489886,0.032214 0.084561,0 0.1499953,-0.032214 0.065434,-0.03322 0.1107347,-0.097648 0.045301,-0.065434 0.068454,-0.1600621 0.02416,-0.094628 0.02416,-0.2174441 z" id="text2" aria-label="RO" /> </g> </svg> 