<?xml version="1.0" encoding="UTF-8" standalone="no"?>
<!-- Created with Inkscape (http://www.inkscape.org/) -->
<svg width="16" height="16" viewBox="0 0 4.2333332 4.2333333" version="1.1" id="svg1" xmlns="http://www.w3.org/2000/svg" xmlns:svg="http://www.w3.org/2000/svg"> <defs id="defs1" /> <g id="layer1"> <path d="M 2.6510663,3.0214733 H 3.2540961 Q 3.2251506,3.3664064 3.0611265,3.6365637 2.8971024,3.9043089 2.6004118,4.0586846 2.3037211,4.2130602 1.8791881,4.2130602 q -0.325636,0 -0.5861449,-0.1157817 Q 1.0325343,3.9790846 0.84680114,3.764406 0.66106796,3.5473153 0.56217107,3.2409762 0.46568631,2.934637 0.46568631,2.5559343 V 2.2640679 q 0,-0.3787027 0.0988969,-0.6850419 Q 0.6658922,1.2726869 0.85403749,1.0555962 1.0421828,0.83609334 1.3051038,0.72031162 1.5704369,0.6045299 1.9008972,0.6045299 q 0.4197088,0 0.7091631,0.15437563 0.2894543,0.15437562 0.4486541,0.42694507 0.161612,0.2725695 0.1977938,0.6247389 H 2.6534784 Q 2.6293572,1.5838503 2.5473452,1.4222383 2.4677452,1.2606263 2.3109575,1.1762021 2.1541697,1.0893659 1.9008972,1.0893659 q -0.2074422,0 -0.3618179,0.077188 Q 1.3847037,1.2437415 1.2809826,1.3932929 1.1772615,1.5428443 1.1241948,1.7623471 1.0735403,1.9794378 1.0735403,2.2592437 v 0.2966906 q 0,0.2653331 0.04583,0.4824239 0.048242,0.2146786 0.1447272,0.3690542 0.098897,0.1543756 0.2508603,0.2387998 0.1519636,0.084424 0.36423,0.084424 0.2580968,0 0.4172967,-0.082012 0.161612,-0.082012 0.243624,-0.2387998 0.084424,-0.1591999 0.1109575,-0.3883512 z" id="text1" style="font-weight:500;font-size:4.94002px;font-family:Roboto;-inkscape-font-specification:'Roboto Medium';fill:#b9d174;stroke-width:0.370503" transform="scale(1.1378883,0.87882092)" aria-label="C" /> </g> </svg>
