<?xml version="1.0" encoding="UTF-8" standalone="no"?>
<!-- Created with Inkscape (http://www.inkscape.org/) -->
<svg width="16" height="16" viewBox="0 0 4.2333332 4.2333333" version="1.1" id="svg1" xmlns="http://www.w3.org/2000/svg" xmlns:svg="http://www.w3.org/2000/svg"> <defs id="defs1" /> <g id="layer1" style="fill:#708090"> <path style="font-weight:900;font-size:4.68775px;font-family:Roboto;-inkscape-font-specification:'Roboto Heavy';fill:#708090;stroke-width:0.351583" d="M 2.5080296,2.8084637 H 3.3091588 C 3.2984771,3.0404097 3.2359127,3.2448884 3.1214657,3.4218998 3.0070186,3.5989111 2.8483188,3.7370105 2.6453661,3.836198 2.4439393,3.9338595 2.2058895,3.9826902 1.9312167,3.9826902 c -0.2227902,0 -0.421928,-0.037386 -0.5974135,-0.1121581 C 1.1598437,3.79576 1.0118256,3.6881798 0.8897488,3.5477915 0.76919795,3.4074032 0.67687735,3.2372586 0.61278702,3.0373578 0.55022265,2.837457 0.51894047,2.6123779 0.51894047,2.3621204 V 2.1812941 c 0,-0.2502575 0.0328081,-0.4753366 0.0984244,-0.6752374 C 0.68450714,1.30463 0.77911669,1.1337224 0.90119351,0.99333404 1.0247963,0.85141973 1.1728144,0.74307656 1.3452479,0.66830451 1.5176814,0.59353246 1.7091895,0.55614643 1.919772,0.55614643 c 0.2899324,0 0.534849,0.0518827 0.7347498,0.15564794 0.1999008,0.1037653 0.3547858,0.24644258 0.4646549,0.42803183 0.1098691,0.1800633 0.1747224,0.385305 0.1945599,0.615725 H 2.5126075 C 2.5095556,1.6304225 2.4881921,1.5258942 2.4485172,1.4419663 2.4088422,1.3565126 2.3462778,1.2924223 2.2608241,1.2496954 2.1753703,1.2069685 2.0616863,1.185605 1.919772,1.185605 1.820585,1.185605 1.7343678,1.203917 1.6611217,1.24054 1.5878757,1.277163 1.5268372,1.335149 1.4780065,1.4144991 1.4291755,1.4938491 1.3925525,1.5968513 1.3681373,1.723506 1.3452483,1.8486347 1.3338033,1.9997048 1.3338033,2.1767162 v 0.1854042 c 0,0.1770114 0.010682,0.3280815 0.032045,0.4532102 0.021363,0.1251287 0.055697,0.2273681 0.1030023,0.306718 0.047305,0.07935 0.1083431,0.1380994 0.1831152,0.1762484 0.076298,0.036623 0.1693817,0.054935 0.2792508,0.054935 0.1220768,0 0.2250791,-0.019075 0.3090069,-0.057224 0.083928,-0.039675 0.1487811,-0.099187 0.1945599,-0.1785373 0.045779,-0.080876 0.070194,-0.1838782 0.073246,-0.309007 z" id="text1" transform="scale(1.0857323,0.92103734)" aria-label="C" /> <path d="m 2.0583858,2.7972149 h 0.4361865 c 0.098941,0 0.1824984,0.015083 0.2506714,0.045248 0.068776,0.030165 0.1209619,0.07481 0.1565566,0.1339327 0.036198,0.05852 0.054297,0.1306145 0.054297,0.2162834 0,0.06033 -0.012368,0.115532 -0.037103,0.165606 -0.024132,0.04947 -0.059123,0.091701 -0.1049743,0.1266928 -0.045248,0.034388 -0.099545,0.060028 -0.1628912,0.076921 l -0.048867,0.019004 H 2.1923186 L 2.1905087,3.4388253 H 2.500002 c 0.062743,0 0.1149288,-0.010859 0.1565565,-0.032578 0.041628,-0.022322 0.073,-0.052185 0.094115,-0.08959 0.021115,-0.037405 0.031673,-0.078731 0.031673,-0.1239783 0,-0.050677 -0.00995,-0.09502 -0.029863,-0.1330279 -0.019909,-0.038008 -0.051281,-0.067268 -0.094115,-0.087781 -0.042231,-0.021116 -0.09683,-0.031673 -0.1637961,-0.031673 H 2.2330414 V 4.1148238 H 2.0583858 Z M 2.8284992,4.1148238 2.5081465,3.517556 2.6900417,3.5166511 3.0149192,4.1039644 v 0.010859 z M 3.1307529,3.6361046 v -0.020814 c 0,-0.070586 0.010256,-0.1360443 0.030768,-0.1963744 0.020512,-0.060933 0.050074,-0.1137222 0.088685,-0.1583665 0.038611,-0.045247 0.085367,-0.080239 0.1402674,-0.1049743 0.0549,-0.025339 0.1164367,-0.038008 0.18461,-0.038008 0.068776,0 0.1306147,0.012669 0.185515,0.038008 0.055503,0.024735 0.1025608,0.059727 0.1411724,0.1049743 0.039215,0.044644 0.069078,0.097433 0.08959,0.1583665 0.020512,0.06033 0.030768,0.1257881 0.030768,0.1963744 v 0.020814 c 0,0.070586 -0.010256,0.1360443 -0.030768,0.1963744 -0.020512,0.06033 -0.050375,0.1131188 -0.08959,0.1583665 -0.038611,0.044644 -0.085367,0.079635 -0.1402674,0.1049743 -0.054297,0.024735 -0.115834,0.037103 -0.1846101,0.037103 -0.068776,0 -0.1306146,-0.012368 -0.185515,-0.037103 C 3.3364783,4.0704812 3.289421,4.0354898 3.2502065,3.9908455 3.2115952,3.945598 3.1820335,3.8928091 3.1615212,3.832479 3.141009,3.7721489 3.1307529,3.7066908 3.1307529,3.6361046 Z m 0.167416,-0.020814 v 0.020814 c 0,0.048867 0.00573,0.09502 0.017194,0.1384576 0.011463,0.042835 0.028657,0.080843 0.051582,0.1140238 0.023529,0.033181 0.052789,0.059425 0.08778,0.078731 0.034991,0.018702 0.075714,0.028053 0.1221684,0.028053 0.045851,0 0.08597,-0.00935 0.1203585,-0.028053 0.034991,-0.019305 0.06395,-0.045549 0.086875,-0.078731 0.022925,-0.033181 0.040119,-0.071189 0.051582,-0.1140238 0.012066,-0.043438 0.018099,-0.08959 0.018099,-0.1384576 v -0.020814 c 0,-0.048264 -0.00603,-0.093813 -0.018099,-0.1366477 -0.011463,-0.043438 -0.028958,-0.081748 -0.052487,-0.1149288 -0.022925,-0.033785 -0.051884,-0.06033 -0.086875,-0.079636 -0.034388,-0.019305 -0.074809,-0.028958 -0.1212635,-0.028958 -0.045851,0 -0.086272,0.00965 -0.1212634,0.028958 -0.034388,0.019305 -0.063346,0.045851 -0.086875,0.079636 -0.022925,0.033181 -0.040119,0.071491 -0.051582,0.1149288 -0.011463,0.042835 -0.017194,0.088384 -0.017194,0.1366477 z" id="text2" style="font-size:1.85334px;font-family:Roboto;-inkscape-font-specification:Roboto;fill:#ff0000;stroke-width:0.139001" transform="scale(1.0194176,0.98095229)" aria-label="Ro" /> </g> </svg>
