<?xml version="1.0" encoding="UTF-8" standalone="no"?>
<!-- Created with Inkscape (http://www.inkscape.org/) -->

<svg width="16" height="16" viewBox="0 0 4.2333332 4.2333333" version="1.1" id="svg1" xmlns="http://www.w3.org/2000/svg" xmlns:svg="http://www.w3.org/2000/svg"> <defs id="defs1" /> <g id="layer1"> <path style="font-weight:900;font-size:4.68775px;font-family:Roboto;-inkscape-font-specification:'Roboto Heavy';fill:#9acd32;stroke-width:0.351583" d="M 2.5080296,2.8084637 H 3.3091588 Q 3.2931362,3.1563827 3.1214657,3.4218998 2.9497951,3.6874168 2.6453661,3.836198 2.3432259,3.9826902 1.9312167,3.9826902 q -0.3341853,0 -0.5974135,-0.1121581 Q 1.072864,3.758374 0.8897488,3.5477915 0.70892252,3.337209 0.61278702,3.0373578 0.51894047,2.7375066 0.51894047,2.3621204 V 2.1812941 q 0,-0.3753862 0.0984244,-0.6752374 Q 0.71807828,1.2039166 0.90119351,0.99333404 1.0865977,0.78046258 1.3452479,0.66830451 1.6038982,0.55614643 1.919772,0.55614643 q 0.4348986,0 0.7347498,0.15564794 0.2998512,0.15564795 0.4646549,0.42803183 0.1648037,0.270095 0.1945599,0.615725 H 2.5126075 Q 2.5080296,1.5678581 2.4485172,1.4419663 2.3890047,1.3137857 2.2608241,1.2496954 2.1326434,1.185605 1.919772,1.185605 q -0.1487812,0 -0.2586503,0.054935 Q 1.5512526,1.2954742 1.4780065,1.4144991 1.4047604,1.533524 1.3681373,1.723506 1.3338032,1.9111991 1.3338032,2.1767162 v 0.1854042 q 0,0.2655171 0.032045,0.4532102 0.032045,0.1876931 0.1030023,0.306718 0.070957,0.1190249 0.1831152,0.1762484 0.1144471,0.054935 0.2792508,0.054935 0.1831152,0 0.3090069,-0.057224 0.1258917,-0.059512 0.1945599,-0.1785373 0.068668,-0.1213138 0.073246,-0.309007 z" id="text1" transform="scale(1.0857323,0.92103734)" aria-label="C" /> </g> </svg>