<svg clip-rule="evenodd" fill-rule="evenodd" height="16" stroke-linejoin="round" stroke-miterlimit="2" width="16" xmlns="http://www.w3.org/2000/svg"><path d="m9.599 3.863c.705.332 1.326.875 1.812 1.565l1.97-.174c.442-.039.831.263.867.676.037.413-.292.779-.735.818l-1.368.121c.203.583.326 1.216.351 1.878h1.505c.414 0 .75.336.75.75s-.336.75-.75.75h-1.618c-.132.684-.369 1.321-.69 1.882l1.264.11c.473.041.827.409.791.822s-.448.714-.921.673l-2.283-.199.001-.008c-.726.613-1.603.974-2.544.974s-1.819-.361-2.544-.975l.001.013-2.283.199c-.473.041-.885-.26-.921-.673s.318-.781.791-.822l1.266-.11c-.321-.561-.559-1.198-.691-1.882h-1.619c-.414 0-.75-.336-.75-.75s.336-.75.75-.75h1.505c.025-.662.147-1.295.35-1.878l-1.367-.121c-.443-.039-.772-.405-.735-.818.036-.413.425-.715.867-.676l1.968.174c.486-.692 1.108-1.236 1.814-1.568l-1.286-1.543c-.177-.212-.148-.528.064-.704.212-.177.528-.148.704.064l1.553 1.863c.185-.029.373-.043.563-.043s.378.015.563.043l1.553-1.863c.177-.212.492-.241.704-.064s.241.492.064.704l-1.285 1.543zm.151 2.887h-3.5c-.414 0-.75.336-.75.75s.336.75.75.75h3.5c.414 0 .75-.336.75-.75s-.336-.75-.75-.75zm0 3h-3.5c-.414 0-.75.336-.75.75s.336.75.75.75h3.5c.414 0 .75-.336.75-.75s-.336-.75-.75-.75z" fill="#93c54b"/></svg>