<?xml version="1.0" encoding="UTF-8"?>
<!-- Created with Inkscape (http://www.inkscape.org/) -->
<svg width="16" height="16" version="1.1" viewBox="0 0 4.2333 4.2333" xml:space="preserve" xmlns="http://www.w3.org/2000/svg"><defs><mask id="mask-powermask-path-effect12" maskUnits="userSpaceOnUse"><path id="mask-powermask-path-effect12_box" d="m-0.0739-0.074h4.3812v4.9104h-4.3812z" fill="#fff"/><g fill="none" stroke="#000" stroke-dashoffset="5" stroke-linecap="round" stroke-linejoin="round" stroke-width=".26458" style=""><path d="m1.7198 1.9844h0.79375"/><path d="m1.7198 2.7781h0.79375"/></g></mask><mask id="mask-powermask-path-effect13" maskUnits="userSpaceOnUse"><path id="mask-powermask-path-effect13_box" d="m-0.66927-0.60313h5.5719v5.2412h-5.5719z" fill="#fff"/><g fill="none" stroke="#000" stroke-dashoffset="5" stroke-linecap="round" stroke-linejoin="round" stroke-width=".26458" style=""><path d="m1.7198 1.9844h0.79375"/><path d="m1.7198 2.7781h0.79375"/></g></mask></defs><g fill="none" mask="url(#mask-powermask-path-effect13)" stroke="#afd775" stroke-linecap="round" stroke-linejoin="round" stroke-width=".26458"><path d="m1.4552 0.52916 0.66145 0.79374 0.66145-0.79374" stroke-dashoffset="1.3229"/><g stroke-dashoffset="5" stroke-width=".39687"><path d="m0.66145 1.5875 1.4552 0.13229 1.4552-0.13229"/><path d="m0.52916 2.5135h3.175"/><path d="m0.79374 3.4396 1.3229-0.13224 1.3229 0.13224"/></g></g><path d="m3.3073 2.3812a1.1906 1.4552 0 0 1-1.1906 1.4552 1.1906 1.4552 0 0 1-1.1906-1.4552 1.1906 1.4552 0 0 1 1.1906-1.4552 1.1906 1.4552 0 0 1 1.1906 1.4552z" fill="#afd775" mask="url(#mask-powermask-path-effect12)" stroke-width=".90829"/></svg>
