<svg height="16" viewBox="0 0 4.2333 4.2333" width="16" xmlns="http://www.w3.org/2000/svg"><g fill="none" stroke="#93c54b" stroke-linecap="round"><path d="m1.4552.52916.66145.79374.66145-.79374" stroke-width=".26458"/><g stroke-width=".39687"><path d="m.66145 1.5875.7276.06615h1.4552l.7276-.06615"/><path d="m.52916 2.5135h.9"/><path d="m2.80416 2.5135h.9"/><path d="m.79374 3.4396 1.3229-.13224 1.3229.13224"/></g></g><path d="m2.1167.926a1.1906 1.4552 0 0 1 1.1906 1.4552 1.1906 1.4552 0 0 1 -1.1906 1.4552v-.926h.397a.13229.13229 0 0 0 0-.26458h-.397v-.529h.397a.13229.13229 0 0 0 0-.26458h-.794a.13229.13229 0 0 0 0 .26458h.397v.529h-.397a.13229.13229 0 0 0 0 .26458h.397v.926a1.1906 1.4552 0 0 1 -1.1906-1.4552 1.1906 1.4552 0 0 1 1.1906-1.4552z" fill="#93c54b"/></svg>