<?xml version="1.0" encoding="UTF-8"?>
<!-- Created with Inkscape (http://www.inkscape.org/) -->
<svg width="16" height="16" version="1.1" viewBox="0 0 4.2333 4.2333" xml:space="preserve" xmlns="http://www.w3.org/2000/svg"><g fill="none" stroke="#afd775" stroke-linecap="round"><path d="m1.4552 0.52916 0.66145 0.79374 0.66145-0.79374" stroke-width=".26458"/><path d="m0.66145 1.5875 0.7276 0.06615 1.4552 0 0.7276-0.06615" stroke-width=".39687"/><path d="m0.52916 2.5135h0.9" stroke-width=".39687"/><path d="m2.80416 2.5135h0.9" stroke-width=".39687"/><path d="m0.79374 3.4396 1.3229-0.13224 1.3229 0.13224" stroke-width=".39687"/></g><path d="m2.1167 0.926a1.1906 1.4552 0 0 1 1.1906 1.4552 1.1906 1.4552 0 0 1-1.1906 1.4552v-0.926h0.397a0.13229 0.13229 0 0 0 0 -0.26458h-0.397v-0.529h0.397a0.13229 0.13229 0 0 0 0 -0.26458h-0.794a0.13229 0.13229 0 0 0 0 0.26458h0.397v0.529h-0.397a0.13229 0.13229 0 0 0 0 0.26458h0.397v0.926a1.1906 1.4552 0 0 1-1.1906-1.4552 1.1906 1.4552 0 0 1 1.1906-1.4552z" fill="#afd775"/></svg>