<?xml version="1.0" encoding="UTF-8"?>
<!-- Created with Inkscape (http://www.inkscape.org/) -->
<svg width="16" height="16" version="1.1" viewBox="0 0 4.2333 4.2333" xml:space="preserve" xmlns="http://www.w3.org/2000/svg"><defs><mask id="mask-powermask-path-effect20" maskUnits="userSpaceOnUse"><path id="mask-powermask-path-effect20_box" d="m-0.20625-0.20625h4.6458v5.175h-4.6458z" fill="#fff"/><g style=""><path d="m1.7198 1.9844h0.79375" fill="none" stroke="#000" stroke-dashoffset="5" stroke-linecap="round" stroke-linejoin="round" stroke-width=".26458"/><path d="m1.7198 2.7781h0.79375" fill="none" stroke="#000" stroke-dashoffset="5" stroke-linecap="round" stroke-linejoin="round" stroke-width=".26458"/></g></mask></defs><g fill="none" stroke="#afd775" stroke-linecap="round" stroke-linejoin="round" stroke-width=".26458"><path d="m0.92604 0.39688 1.1906 0.79375 1.1906-0.79375" stroke-dashoffset="1.3229"/><g stroke-dashoffset="5"><path d="m0.52917 1.4552 1.5875 0.26458 1.5875-0.26458"/><path d="m0.39688 2.5135h3.4396"/><path d="m0.66146 3.5719 1.4552-0.26458 1.4552 0.26458"/></g></g><path d="m3.4396 2.3813a1.3229 1.5875 0 0 1-1.3229 1.5875 1.3229 1.5875 0 0 1-1.3229-1.5875 1.3229 1.5875 0 0 1 1.3229-1.5875 1.3229 1.5875 0 0 1 1.3229 1.5875z" fill="#afd775" mask="url(#mask-powermask-path-effect20)"/></svg>
