<svg clip-rule="evenodd" fill-rule="evenodd" height="16" stroke-linecap="round" viewBox="0 0 16 16" width="16" xmlns="http://www.w3.org/2000/svg"><g fill="none" stroke="#231f20"><path d="m5.5 2 1.742 2.091"/><path d="m8.758 4.091 1.742-2.091"/><path d="m7.242 4.091h1.516" stroke-miterlimit="1.5"/></g><g fill="#231f20"><path d="m4.541 6.939-2.098-.191c-.575-.052-.317-.375-.69-.816.323-.149.502-.529.826-.678.163-.075.357.032.536.049l1.562.142z"/><path d="m11.387 6.945-.136-1.494 2.17-.197c.307.181.519.497.826.678-.312.172-.378.644-.69.816-.276.153-.629.057-.943.086l-1.227.112z"/><path d="m3.929 10.25h-1.919c-.579 0-.35-.345-.76-.75.305-.183.455-.567.76-.75.074-.044.082 0 1.074 0h.845z"/><path d="m12.005 10.25v-1.5h1.985c.286.212.474.538.76.75-.323.149-.437.601-.76.75-.144.067-.153 0-1.985 0z"/><path d="m5.433 13.511-2.346.235c-.578.058-.384-.309-.833-.67.292-.204.391-.618.683-.822.159-.111.385-.038.577-.058l1.769-.177.149 1.493z"/><path d="m10.565 13.51.149-1.493 2.349.235c.269.233.414.589.683.822-.341.104-.492.566-.832.671-.11.034-.111-.011-1.429-.143z"/></g><g fill="none" stroke="#231f20" stroke-linejoin="round" stroke-miterlimit="1.5"><path d="m6 10.5h4"/><path d="m6 7.5h4"/><ellipse cx="8" cy="9" rx="4" ry="5"/></g></svg>