<svg clip-rule="evenodd" fill-rule="evenodd" height="16" stroke-linecap="round" width="16" xmlns="http://www.w3.org/2000/svg"><path d="m5.5 2 1.742 2.091" fill="none" stroke="#231f20"/><path d="m8.758 4.091 1.742-2.091" fill="none" stroke="#231f20"/><g fill="#231f20"><path d="m4 8.75v1.5h-2c-.414 0-.75-.336-.75-.75s.336-.75.75-.75z"/><path d="m5.327 12.044.13 1.494s-1.354.118-2.283.199c-.473.041-.885-.26-.921-.673s.318-.781.791-.822c.93-.081 2.283-.199 2.283-.199z"/><path d="m4.757 5.446-.132 1.494s-1.267-.112-2.137-.189c-.443-.039-.772-.405-.735-.818.036-.413.425-.715.867-.676.87.077 2.137.189 2.137.189z"/><path d="m12 8.746v1.5h2c.414 0 .75-.336.75-.75s-.336-.75-.75-.75z"/><path d="m10.673 12.04-.13 1.494s1.354.118 2.283.199c.473.041.885-.26.921-.673s-.318-.781-.791-.822c-.93-.081-2.283-.199-2.283-.199z"/><path d="m11.243 5.442.132 1.494s1.267-.112 2.137-.189c.443-.039.772-.405.735-.818-.036-.413-.425-.715-.867-.676-.87.077-2.137.189-2.137.189z"/></g><g fill="none" stroke="#231f20" stroke-linejoin="round" stroke-miterlimit="1.5"><path d="m6.5 10.5h3"/><path d="m6.5 7.5h3"/><ellipse cx="8" cy="9" rx="4" ry="5"/></g></svg>