<svg height="16" viewBox="0 0 4.2333 4.2333" width="16" xmlns="http://www.w3.org/2000/svg"><path d="m3.0714.40116a.68787.68785 0 0 0 -.40977.19749l-2.0631 2.0631a.68787.68785 0 0 0 0 .97309.68787.68785 0 0 0 .97313 0l2.0631-2.0631a.68787.68785 0 0 0 0-.97309.68787.68785 0 0 0 -.56338-.19749zm.077475.2257a.45859.45856 0 0 1 .45859.45856.45859.45856 0 0 1 -.45859.45856.45859.45856 0 0 1 -.45859-.45856.45859.45856 0 0 1 .45859-.45856z" fill="#739df0" stroke-linecap="round" stroke-miterlimit="3.7" stroke-width=".86659"/><g stroke="#9aa7b0" stroke-linecap="round" stroke-miterlimit="3.7" stroke-width=".26466" transform="matrix(.86647 0 0 .86636 .28305 .28352)"><path d="m.66064 3.1747 1.5879-1.5881"/><path d="m1.0576 3.5717 1.0586-1.0587"/></g><path d="m3.0427 1.8521-.0000001 1.5875" fill="none" stroke="#93c54b" stroke-linejoin="round" stroke-width=".52917"/><path d="m2.249 3.175h1.5875l-.79375.79375z" fill="#93c54b"/></svg>