<?xml version="1.0" encoding="UTF-8"?>
<svg width="16" height="16" version="1.1" viewBox="0 0 4.2333 4.2333" xml:space="preserve" xmlns="http://www.w3.org/2000/svg"><path d="m3.0714 0.40116a0.68787 0.68785 0 0 0-0.40977 0.19749l-2.0631 2.0631a0.68787 0.68785 0 0 0 0 0.97309 0.68787 0.68785 0 0 0 0.97313 0l2.0631-2.0631a0.68787 0.68785 0 0 0 0-0.97309 0.68787 0.68785 0 0 0-0.56338-0.19749zm0.077475 0.2257a0.45859 0.45856 0 0 1 0.45859 0.45856 0.45859 0.45856 0 0 1-0.45859 0.45856 0.45859 0.45856 0 0 1-0.45859-0.45856 0.45859 0.45856 0 0 1 0.45859-0.45856z" color="#000000" fill="#739df0" stroke-linecap="round" stroke-miterlimit="3.7" stroke-width=".86659" style="-inkscape-stroke:none"/><g transform="matrix(.86647 0 0 .86636 .28305 .28352)" stroke="#fff" stroke-linecap="round" stroke-miterlimit="3.7" stroke-width=".26466"><path d="m0.66064 3.1747 1.5879-1.5881"/><path d="m1.0576 3.5717 1.0586-1.0587"/></g><path d="m3.0427 1.8521-1e-7 1.5875" fill="none" stroke="#93c54b" stroke-linejoin="round" stroke-width=".52917"/><path d="m2.249 3.175h1.5875l-0.79375 0.79375z" fill="#93c54b"/></svg>
