<?xml version="1.0" encoding="UTF-8"?>
<svg width="16" height="16" version="1.1" viewBox="0 0 4.2333 4.2333" xml:space="preserve" xmlns="http://www.w3.org/2000/svg"><path d="m3.2181 0.13579a0.79388 0.79395 0 0 0-0.47292 0.22795l-2.3811 2.3813a0.79388 0.79395 0 0 0 0 1.1232 0.79388 0.79395 0 0 0 1.1231 0l2.3811-2.3813a0.79388 0.79395 0 0 0 0-1.1232 0.79388 0.79395 0 0 0-0.6502-0.22795zm0.089415 0.26052a0.52926 0.5293 0 0 1 0.52926 0.5293 0.52926 0.5293 0 0 1-0.52926 0.5293 0.52926 0.5293 0 0 1-0.52926-0.5293 0.52926 0.5293 0 0 1 0.52926-0.5293z" color="#000000" fill="#739df0" stroke-linecap="round" stroke-miterlimit="3.7" stroke-width="1.0002" style="-inkscape-stroke:none"/><g><path d="m0.66064 3.1747 1.5879-1.5881" stroke="#fff" stroke-linecap="round" stroke-miterlimit="3.7" stroke-width=".26466"/><path d="m1.0576 3.5717 1.0586-1.0587" stroke="#fff" stroke-linecap="round" stroke-miterlimit="3.7" stroke-width=".26466"/><path d="m3.0427 1.8521-1e-7 1.5875" fill="none" stroke="#93c54b" stroke-linejoin="round" stroke-width=".52917"/></g><path d="m2.249 3.175h1.5875l-0.79375 0.79375z" fill="#93c54b"/></svg>
