<?xml version="1.0" encoding="UTF-8" standalone="no"?>
<!-- Created with Inkscape (http://www.inkscape.org/) -->
<svg width="16" height="16" viewBox="0 0 4.2333332 4.2333333" version="1.1" id="svg1" xmlns="http://www.w3.org/2000/svg" xmlns:svg="http://www.w3.org/2000/svg"> <defs id="defs1" /> <g id="layer1"> <path style="font-weight:900;font-size:3.0831px;font-family:Roboto;-inkscape-font-specification:'Roboto Heavy';fill:#9370db;stroke:none;stroke-width:0.231233" d="M 1.5553671,0.70884915 1.6575919,0.95856837 Q 1.5346027,1.0025534 1.4914767,1.113224 1.4483506,1.2238951 1.4483506,1.3686187 v 0.2880285 q 0,0.1433047 -0.075072,0.26107 -0.073473,0.1163465 -0.2331998,0.1858705 -0.15972613,0.068105 -0.41688533,0.068105 V 1.9361624 q 0.1373645,0 0.1964632,-0.075199 0.060696,-0.076619 0.060696,-0.2043157 v -0.288029 q 0,-0.1489802 0.051112,-0.2780964 0.05271,-0.13053503 0.1788937,-0.22843637 0.1261835,-0.0993201 0.3450087,-0.15323678 z M 1.6575919,3.2344185 1.5553671,3.4855566 Q 1.3365422,3.4302211 1.2103587,3.3309009 1.084175,3.2329996 1.0314653,3.1024646 0.98035297,2.9733485 0.98035297,2.8243682 V 2.5363398 q 0,-0.085131 -0.027153,-0.1475613 -0.025556,-0.06243 -0.083058,-0.096483 -0.055904,-0.034053 -0.146948,-0.034053 V 2.0212939 q 0.2571591,0 0.41688523,0.069524 0.1597262,0.068105 0.2332002,0.1844517 0.075072,0.1163465 0.075072,0.2610701 v 0.2880284 q 0,0.096482 0.01757,0.1787763 0.019167,0.082294 0.063891,0.1418859 0.04632,0.059592 0.1277799,0.089388 z M 2.6015734,0.95856837 2.7037982,0.70884915 q 0.220422,0.0539167 0.3450085,0.15323678 0.1261837,0.0979013 0.177296,0.22843637 0.05271,0.1291162 0.05271,0.2780964 v 0.2880285 q 0,0.085131 0.025556,0.1475612 0.027153,0.06243 0.084655,0.097901 0.057501,0.034053 0.1485454,0.034053 v 0.2341118 q -0.2571591,0 -0.4184825,-0.068105 Q 2.95936,2.0340637 2.8842887,1.9177172 2.8108146,1.7999519 2.8108146,1.6566472 V 1.3686187 q 0,-0.096483 -0.01757,-0.1787762 Q 2.775674,1.1075485 2.7293536,1.0479565 2.68463,0.98694547 2.6015734,0.95856837 Z M 2.7037983,3.4855566 2.6015734,3.2344185 q 0.083058,-0.029796 0.1277809,-0.089388 0.04632,-0.059592 0.063891,-0.1418859 0.01757,-0.082294 0.01757,-0.1787763 V 2.5363398 q 0,-0.1447236 0.073474,-0.26107 0.075072,-0.1163466 0.2347975,-0.1844517 0.1613234,-0.068105 0.4184825,-0.068105 v 0.2355304 q -0.1373645,0 -0.1980604,0.076619 -0.060696,0.075199 -0.060696,0.201478 v 0.2880284 q 0,0.1489802 -0.05271,0.2780964 Q 3.1749909,3.233 3.0488068,3.3309013 2.9242203,3.4302213 2.7037983,3.4855566 Z" id="text1" aria-label="{ }" /> </g> </svg>
