<?xml version="1.0" encoding="UTF-8"?>
<!-- Created with Inkscape (http://www.inkscape.org/) -->
<svg width="16" height="16" version="1.1" viewBox="0 0 4.2333 4.2333" xml:space="preserve" xmlns="http://www.w3.org/2000/svg"><rect x=".26458" y=".26458" width="3.7042" height="3.7042" fill="#8c74d1"/><g fill="none" stroke="#fff" stroke-linejoin="round" stroke-width=".26458"><path d="m1.9057 1.0583c-0.45053 1e-7 -0.45053 0.39688-0.45053 0.39688v0.26458c0 0.39688-0.39688 0.39688-0.39688 0.39688"/><path d="m1.9057 3.175c-0.45053-1e-7 -0.45053-0.39688-0.45053-0.39688v-0.26458c0-0.39688-0.39688-0.39688-0.39688-0.39688"/><path d="m2.3276 1.0583c0.45053 1e-7 0.45053 0.39688 0.45053 0.39688v0.26458c0 0.39688 0.39688 0.39688 0.39688 0.39688"/><path d="m2.3276 3.175c0.45053-1e-7 0.45053-0.39688 0.45053-0.39688v-0.26458c0-0.39688 0.39688-0.39688 0.39688-0.39688"/></g></svg>
