<?xml version="1.0" encoding="UTF-8"?>
<!-- Created with Inkscape (http://www.inkscape.org/) -->
<svg width="16" height="16" version="1.1" viewBox="0 0 4.2333 4.2333" xml:space="preserve" xmlns="http://www.w3.org/2000/svg"><g transform="translate(-.26458)" fill="none" stroke="#8c74d1" stroke-linejoin="round" stroke-width=".52916"><path d="m2.1166 0.66145c-0.52916 0-0.52916 0.39687-0.52916 0.39687v0.39687c0 0.66145-0.79374 0.66145-0.79374 0.66145"/><path d="m2.1166 3.5718c-0.52916 0-0.52916-0.39687-0.52916-0.39687v-0.39687c0-0.66145-0.79374-0.66145-0.79374-0.66145"/><path transform="matrix(-1 0 0 1 4.7625 0)" d="m2.1166 0.66145c-0.52916 0-0.52916 0.39687-0.52916 0.39687v0.39687c0 0.66145-0.79374 0.66145-0.79374 0.66145"/><path transform="matrix(-1 0 0 1 4.7625 0)" d="m2.1166 3.5718c-0.52916 0-0.52916-0.39687-0.52916-0.39687v-0.39687c0-0.66145-0.79374-0.66145-0.79374-0.66145"/></g></svg>
