<?xml version="1.0" encoding="UTF-8" standalone="no"?>
<!-- Created with Inkscape (http://www.inkscape.org/) -->
<svg width="16" height="16" viewBox="0 0 4.2333334 4.2333333" version="1.1" id="svg1" xmlns="http://www.w3.org/2000/svg" xmlns:svg="http://www.w3.org/2000/svg"> <defs id="defs1" /> <g id="layer1"> <path d="M 1.5347199,0.84912018 1.6027185,1.0431993 Q 1.456805,1.0927815 1.4015562,1.2188621 1.347724,1.3449427 1.347724,1.5078558 v 0.2918269 q 0,0.1416636 -0.060915,0.2578277 Q 1.22731,2.1736746 1.0969795,2.2416731 0.96664903,2.3096716 0.75557031,2.3096716 V 2.1141759 q 0.14591348,0 0.20966209,-0.084998 Q 1.028981,1.9441796 1.028981,1.7996827 V 1.5078558 q 0,-0.1487468 0.045332,-0.2776606 0.046749,-0.1303305 0.1572466,-0.2280784 0.1104976,-0.0991645 0.30316,-0.15299662 z M 1.6027185,3.4316471 1.5347199,3.6271428 Q 1.3420575,3.571894 1.2315599,3.4727295 1.1210623,3.3749816 1.0743133,3.2446511 1.028981,3.1157373 1.028981,2.9669905 V 2.6779969 q 0,-0.097748 -0.028333,-0.167163 -0.0283327,-0.070832 -0.0892481,-0.109081 -0.0594987,-0.039666 -0.15582993,-0.039666 V 2.1651747 q 0.21107872,0 0.34140919,0.069415 Q 1.22731,2.3025884 1.2868087,2.4187525 1.347724,2.5335 1.347724,2.6779969 v 0.2889936 q 0,0.109081 0.022666,0.2011623 0.024083,0.093498 0.079332,0.1614965 0.056665,0.067999 0.1529967,0.1019978 z M 2.4045343,1.0431993 2.4725328,0.84912018 q 0.1940791,0.0538321 0.3045767,0.15299662 0.1104975,0.097748 0.1558299,0.2280784 0.045332,0.1289138 0.045332,0.2776606 v 0.2918269 q 0,0.094915 0.028333,0.1657464 0.028333,0.070832 0.089248,0.1104976 0.060915,0.038249 0.1572465,0.038249 v 0.1869959 q -0.209662,0 -0.3414092,-0.065165 Q 2.7799427,2.1694246 2.7190274,2.0560938 2.6595287,1.9413463 2.6595287,1.7996827 V 1.5078558 q 0,-0.109081 -0.022666,-0.2025789 Q 2.6141963,1.2117789 2.5575309,1.1437804 2.5022821,1.0757819 2.4045343,1.0431993 Z m 0.067999,2.5839435 -0.067999,-0.1954957 q 0.097748,-0.033999 0.1529966,-0.1019978 0.055249,-0.067998 0.077915,-0.1614965 0.024083,-0.092081 0.024083,-0.2011623 V 2.6779969 q 0,-0.1444969 0.059499,-0.2578277 Q 2.7799427,2.3068383 2.9116898,2.2416731 3.043437,2.1750912 3.253099,2.1750912 v 0.1869959 q -0.1444968,0 -0.209662,0.086415 -0.065165,0.084998 -0.065165,0.229495 v 0.2889936 q 0,0.1487468 -0.045332,0.2776606 Q 2.887607,3.3749816 2.7771095,3.4727295 2.6666119,3.571894 2.4725328,3.6271428 Z" id="text1" style="font-weight:500;font-size:2.90127px;font-family:Roboto;-inkscape-font-specification:'Roboto Medium';fill:#8c74d1;stroke-width:0.217595" transform="scale(1.0572937,0.94581102)" aria-label="{ }" /> </g> </svg> 