<?xml version="1.0" encoding="UTF-8" standalone="no"?>
<svg
   width="16"
   height="16"
   viewBox="0 0 4.2333332 4.2333333"
   version="1.1"
   id="svg1"
   inkscape:version="1.4.2 (f4327f4, 2025-05-13)"
   sodipodi:docname="json.svg"
   xmlns:inkscape="http://www.inkscape.org/namespaces/inkscape"
   xmlns:sodipodi="http://sodipodi.sourceforge.net/DTD/sodipodi-0.dtd"
   xmlns="http://www.w3.org/2000/svg"
   xmlns:svg="http://www.w3.org/2000/svg">
  <sodipodi:namedview
     id="namedview1"
     pagecolor="#ffffff"
     bordercolor="#999999"
     borderopacity="1"
     inkscape:showpageshadow="2"
     inkscape:pageopacity="0"
     inkscape:pagecheckerboard="0"
     inkscape:deskcolor="#d1d1d1"
     inkscape:document-units="px"
     inkscape:zoom="31.163807"
     inkscape:cx="5.2625149"
     inkscape:cy="7.0755155"
     inkscape:window-width="1920"
     inkscape:window-height="991"
     inkscape:window-x="-9"
     inkscape:window-y="-9"
     inkscape:window-maximized="1"
     inkscape:current-layer="layer1" />
  <defs
     id="defs1" />
  <g
     inkscape:label="Calque 1"
     inkscape:groupmode="layer"
     id="layer1">
    <path
       style="font-weight:900;font-size:3.0831px;font-family:Roboto;-inkscape-font-specification:'Roboto Heavy';fill:#9370db;stroke-width:0.231233;stroke:none"
       d="M 1.4430284,0.73854142 1.5393753,1.0034953 Q 1.4234579,1.0501633 1.3828116,1.1675861 1.3421652,1.2850089 1.3421652,1.4385617 V 1.744162 q 0,0.1520474 -0.070755,0.2769972 -0.069249,0.1234445 -0.2197913,0.19721 -0.15054201,0.07226 -0.39291462,0.07226 V 2.0407297 q 0.12946611,0 0.18516665,-0.079787 0.057206,-0.081293 0.057206,-0.2167804 V 1.4385617 q 0,-0.1580691 0.0481734,-0.2950623 Q 0.99892949,1.0050008 1.1178577,0.90112677 1.2367858,0.79574738 1.4430284,0.73854142 Z M 1.5393753,3.4181889 1.4430284,3.6846483 Q 1.2367858,3.6259369 1.1178577,3.5205575 0.99892949,3.4166835 0.94925063,3.2781849 0.90107719,3.1411917 0.90107719,2.9831226 V 2.6775223 q 0,-0.090325 -0.0255921,-0.1565636 Q 0.85139833,2.4547202 0.79720321,2.4185901 0.74451352,2.38246 0.65870458,2.38246 V 2.1310549 q 0.24237261,0 0.39291462,0.073766 0.150542,0.07226 0.2197913,0.1957046 0.070755,0.1234444 0.070755,0.2769972 v 0.3056003 q 0,0.1023685 0.01656,0.1896829 0.018065,0.087314 0.060217,0.150542 0.043657,0.063228 0.1204336,0.094841 z M 2.4290784,1.0034953 2.5254253,0.73854142 q 0.2077479,0.057206 0.3251707,0.16258535 0.1189282,0.10387403 0.1671016,0.24237263 0.049679,0.1369932 0.049679,0.2950623 V 1.744162 q 0,0.090325 0.024087,0.1565636 0.025592,0.066239 0.079787,0.103874 0.054195,0.03613 0.1400041,0.03613 V 2.289124 q -0.2423726,0 -0.39442,-0.07226 Q 2.7662925,2.1446037 2.6955377,2.0211592 2.6262884,1.8962094 2.6262884,1.744162 V 1.4385617 q 0,-0.1023686 -0.01656,-0.1896829 -0.01656,-0.087314 -0.060217,-0.150542 -0.042152,-0.064733 -0.1204336,-0.094842 z m 0.096347,2.681153 -0.096347,-0.2664594 q 0.078282,-0.031614 0.1204336,-0.094841 0.043657,-0.063228 0.060217,-0.150542 0.01656,-0.087314 0.01656,-0.1896829 V 2.6775223 q 0,-0.1535528 0.069249,-0.2769972 0.070755,-0.1234445 0.2212968,-0.1957046 0.1520474,-0.07226 0.39442,-0.07226 V 2.38246 q -0.1294661,0 -0.1866721,0.081293 -0.057206,0.079787 -0.057206,0.2137696 v 0.3056003 q 0,0.1580691 -0.049679,0.2950623 Q 2.9695242,3.4166835 2.850596,3.5205575 2.7331732,3.6259369 2.5254253,3.6846483 Z"
       id="text1"
       transform="scale(1.0610073,0.94250058)"
       aria-label="{ }" />
  </g>
</svg>
