<?xml version="1.0" encoding="UTF-8" standalone="no"?><!DOCTYPE svg PUBLIC "-//W3C//DTD SVG 1.1//EN" "http://www.w3.org/Graphics/SVG/1.1/DTD/svg11.dtd"><svg width="16px" height="16px" version="1.1" xmlns="http://www.w3.org/2000/svg" xmlns:xlink="http://www.w3.org/1999/xlink" xml:space="preserve" xmlns:serif="http://www.serif.com/" style="fill-rule:evenodd;clip-rule:evenodd;"><g><path d="M5,7l0,-2.53c0,-1.98 1.483,-2.97 3,-2.97c1.517,0 3,0.99 3,2.97l0,2.53" style="fill:none;stroke:#231f20;stroke-width:1px;"/><path d="M12.5,7l0,7.5l-9,0l0,-7.5l9,0Zm-5.786,4.252l0,2.566l2.571,0l0,-2.566c0.395,-0.375 0.643,-0.919 0.643,-1.525c0,-1.129 -0.864,-2.045 -1.929,-2.045c-1.065,0 -1.929,0.916 -1.929,2.045c0,0.605 0.248,1.15 0.643,1.525Z" style="fill:#231f20;stroke:#231f20;stroke-width:1px;stroke-linejoin:round;stroke-miterlimit:1.5;"/></g></svg>