<?xml version="1.0" encoding="UTF-8" standalone="no"?>
<!-- Created with Inkscape (http://www.inkscape.org/) -->
<svg width="16" height="16" viewBox="0 0 4.2333332 4.2333333" version="1.1" id="svg1" xmlns="http://www.w3.org/2000/svg" xmlns:svg="http://www.w3.org/2000/svg"> <defs id="defs1" /> <g id="layer1"> <g fill="#8b4513" id="g4" transform="matrix(0.99481976,0,0,1.0000078,0.0434631,-0.0258146)"> <rect x="0.52639002" y="2.1224999" width="3.1668" height="1.7065001" stroke-width="0.26458" id="rect1" /> <rect x="3.1668" y="1.8593" width="0.52639002" height="0.26319" stroke-width="0.21488" id="rect2" /> <rect x="0.52639002" y="1.8593" width="1.5792" height="0.27168" stroke-width="0.17282" id="rect3" /> <rect x="1.0613" y="1.299" width="0.56035" height="0.56035" stroke-width="0.27298" id="rect4" /> </g> <g fill="#9acd32" id="g9" transform="matrix(1.0000078,0,0,1.0000078,0.0297792,-0.0258146)"> <rect x="2.1055" y="0.54337001" width="1.0613" height="1.5876" stroke-width="0.64983" id="rect5" /> <rect x="0.53487998" y="0.54337001" width="0.53487998" height="1.316" stroke-width="0.26458" id="rect6" /> <rect x="3.1582999" y="0.54337001" width="0.53487998" height="1.3414" stroke-width="0.27147" id="rect7" /> <rect x="1.6131001" y="0.54337001" width="0.49241999" height="1.316" stroke-width="0.26927" id="rect8" /> <rect x="1.0698" y="0.54337001" width="0.54337001" height="0.75562" stroke-width="0.26373" id="rect9" /> </g> <rect style="fill:#9acd32;stroke-width:0.371596" id="rect10" width="3.1435099" height="0.7502802" x="0.57195246" y="0.51635867" /> <rect style="fill:#9acd32;stroke-width:0.264583" id="rect11" width="0.35597238" height="0.65717977" x="1.8808355" y="1.1680621" /> <rect style="fill:#8b4513;fill-opacity:1;stroke-width:0.799492" id="rect12" width="1.5662783" height="0.52574384" x="0.56647605" y="1.8416715" /> <rect style="fill:#8b4513;fill-opacity:1;stroke-width:0.265987" id="rect13" width="0.52026731" height="0.13143596" x="3.1951952" y="2.0662076" /> <rect style="fill:#8b4513;stroke-width:0.264583" id="rect14" width="0.52574384" height="0.11500645" x="1.1086494" y="1.7923827" /> </g> </svg>
