<svg clip-rule="evenodd" fill-rule="evenodd" height="16" stroke-linejoin="round" stroke-miterlimit="2" width="16" xmlns="http://www.w3.org/2000/svg"><path d="m3 3c0-.552.448-1 1-1h8c.552 0 1 .448 1 1v10c0 .552-.448 1-1 1h-8c-.552 0-1-.448-1-1zm8.5 4.25h-.5c-.276 0-.5.224-.5.5v.5c0 .276.224.5.5.5h.5c.276 0 .5-.224.5-.5v-.5c0-.276-.224-.5-.5-.5zm0-2.75h-.5c-.276 0-.5.224-.5.5v.5c0 .276.224.5.5.5h.5c.276 0 .5-.224.5-.5v-.5c0-.276-.224-.5-.5-.5zm-3 0h-4c-.133 0-.26.053-.354.146-.094.094-.146.221-.146.354v.5c0 .133.053.26.146.354.094.094.221.146.354.146h4c.133 0 .26-.053.354-.146.094-.094.146-.221.146-.354v-.5c0-.133-.053-.26-.146-.354-.094-.094-.221-.146-.354-.146zm0 5.5h-4c-.133 0-.26.053-.354.146-.094.094-.146.221-.146.354v.5c0 .133.053.26.146.354.094.094.221.146.354.146h4c.133 0 .26-.053.354-.146.094-.094.146-.221.146-.354v-.5c0-.133-.053-.26-.146-.354-.094-.094-.221-.146-.354-.146zm0-2.75h-4c-.133 0-.26.053-.354.146-.094.094-.146.221-.146.354v.5c0 .133.053.26.146.354.094.094.221.146.354.146h4c.133 0 .26-.053.354-.146.094-.094.146-.221.146-.354v-.5c0-.133-.053-.26-.146-.354-.094-.094-.221-.146-.354-.146zm3 2.75h-.5c-.276 0-.5.224-.5.5v.5c0 .276.224.5.5.5h.5c.276 0 .5-.224.5-.5v-.5c0-.276-.224-.5-.5-.5z" fill="#93c54b"/><path d="m10 10v5l5-2.5z" fill="#231f20" fill-rule="nonzero"/></svg>