<svg version="1.1" viewBox="0 0 448 512" xml:space="preserve" xmlns="http://www.w3.org/2000/svg"><path d="m384 32h-320c-35.3 0-64 28.7-64 64v320c0 35.3 28.7 64 64 64h320c35.3 0 64-28.7 64-64v-320c0-35.3-28.7-64-64-64z" fill="#5865f2"/><path d="m346.37 144.64a0.89838 0.89838 0 0 0-0.47914-0.41925 290.54 290.54 0 0 0-71.631-22.22 1.0781 1.0781 0 0 0-1.138 0.53903 202.14 202.14 0 0 0-8.9239 18.327 268.2 268.2 0 0 0-80.495 0 185.37 185.37 0 0 0-9.0437-18.327 1.138 1.138 0 0 0-1.138-0.53903 289.7 289.7 0 0 0-71.751 22.22 1.0182 1.0182 0 0 0-0.47913 0.41925c-45.638 68.217-58.155 134.7-52.046 200.4a1.1978 1.1978 0 0 0 0.47914 0.83849 292.09 292.09 0 0 0 87.922 44.38 1.138 1.138 0 0 0 1.2577-0.41925 208.54 208.54 0 0 0 17.968-29.227 1.138 1.138 0 0 0-0.59892-1.5572 192.37 192.37 0 0 1-27.49-13.116 1.138 1.138 0 0 1-0.11978-1.8567c1.8567-1.3775 3.7133-2.8149 5.4502-4.2523a1.0781 1.0781 0 0 1 1.138-0.17967c57.616 26.293 120.02 26.293 176.98 0a1.0781 1.0781 0 0 1 1.138 0.11978c1.7369 1.4374 3.5935 2.9347 5.4502 4.3122a1.138 1.138 0 0 1-0.11978 1.8567 180.51 180.51 0 0 1-27.49 13.056 1.138 1.138 0 0 0-0.59892 1.5572 234.24 234.24 0 0 0 17.968 29.227 1.138 1.138 0 0 0 1.2577 0.41925 291.08 291.08 0 0 0 88.161-44.38 1.138 1.138 0 0 0 0.47913-0.83849c7.3068-75.883-12.338-141.82-52.106-200.34zm-180.87 160.39c-17.369 0-31.623-15.931-31.623-35.456 0-19.525 14.015-35.516 31.623-35.516 17.788 0 31.923 16.051 31.623 35.456 0 19.585-14.015 35.516-31.623 35.516zm117.03 0c-17.369 0-31.623-15.931-31.623-35.456 0-19.525 13.955-35.516 31.623-35.516 17.788 0 31.923 16.051 31.623 35.456 0 19.585-13.895 35.516-31.623 35.516z" fill="#fff" stroke-width=".59892"/></svg>
